{
  "accessors": [
    {
      "bufferView": 2,
      "componentType": 5126,
      "count": 6329,
      "max": [
        3.1509480476379395,
        3.150949001312256,
        4.774324893951416
      ],
      "min": [
        -3.150949001312256,
        -3.150947093963623,
        0.0
      ],
      "type": "VEC3"
    },
    {
      "bufferView": 2,
      "byteOffset": 75948,
      "componentType": 5126,
      "count": 6329,
      "max": [
        1.0,
        1.0,
        1.0
      ],
      "min": [
        -1.0,
        -1.0,
        -1.0
      ],
      "type": "VEC3"
    },
    {
      "bufferView": 3,
      "componentType": 5126,
      "count": 6329,
      "max": [
        1.0,
        1.0,
        1.0,
        1.0
      ],
      "min": [
        -1.0,
        -1.0,
        -0.9240180850028992,
        -1.0
      ],
      "type": "VEC4"
    },
    {
      "bufferView": 1,
      "componentType": 5126,
      "count": 6329,
      "max": [
        0.9969398975372314,
        0.9973806738853455
      ],
      "min": [
        0.005458415020257235,
        0.005662202835083008
      ],
      "type": "VEC2"
    },
    {
      "bufferView": 0,
      "componentType": 5125,
      "count": 10764,
      "type": "SCALAR"
    },
    {
      "bufferView": 2,
      "byteOffset": 151896,
      "componentType": 5126,
      "count": 1910,
      "max": [
        2.75,
        2.750001907348633,
        4.774324893951416
      ],
      "min": [
        -2.75,
        -2.749998092651367,
        0.0
      ],
      "type": "VEC3"
    },
    {
      "bufferView": 2,
      "byteOffset": 174816,
      "componentType": 5126,
      "count": 1910,
      "max": [
        1.0,
        1.0,
        1.0
      ],
      "min": [
        -1.0,
        -1.0,
        -1.0
      ],
      "type": "VEC3"
    },
    {
      "bufferView": 3,
      "byteOffset": 101264,
      "componentType": 5126,
      "count": 1910,
      "max": [
        1.0,
        1.0,
        0.9129389524459839,
        1.0
      ],
      "min": [
        -1.0,
        -1.0,
        -0.9129387736320496,
        -1.0
      ],
      "type": "VEC4"
    },
    {
      "bufferView": 1,
      "byteOffset": 50632,
      "componentType": 5126,
      "count": 1910,
      "max": [
        0.968697726726532,
        0.9937571883201599
      ],
      "min": [
        0.006864835042506456,
        0.03324107825756073
      ],
      "type": "VEC2"
    },
    {
      "bufferView": 0,
      "byteOffset": 43056,
      "componentType": 5125,
      "count": 4824,
      "type": "SCALAR"
    }
  ],
  "asset": {
    "extras": {
      "author": "ZareShadows (https://sketchfab.com/ZareShadows)",
      "license": "CC-BY-4.0 (http://creativecommons.org/licenses/by/4.0/)",
      "source": "https://sketchfab.com/3d-models/gazebo-ab95dfb3816e4160989f26972c4c7c39",
      "title": "Gazebo"
    },
    "generator": "Sketchfab-12.66.0",
    "version": "2.0"
  },
  "bufferViews": [
    {
      "buffer": 0,
      "byteLength": 62352,
      "name": "floatBufferViews",
      "target": 34963
    },
    {
      "buffer": 0,
      "byteLength": 65912,
      "byteOffset": 62352,
      "byteStride": 8,
      "name": "floatBufferViews",
      "target": 34962
    },
    {
      "buffer": 0,
      "byteLength": 197736,
      "byteOffset": 128264,
      "byteStride": 12,
      "name": "floatBufferViews",
      "target": 34962
    },
    {
      "buffer": 0,
      "byteLength": 131824,
      "byteOffset": 326000,
      "byteStride": 16,
      "name": "floatBufferViews",
      "target": 34962
    }
  ],
  "buffers": [
    {
      "byteLength": 457824,
      "uri": "scene.bin"
    }
  ],
  "images": [
    {
      "uri": "textures/Gazebo_1_baseColor.png"
    },
    {
      "uri": "textures/Gazebo_1_metallicRoughness.png"
    },
    {
      "uri": "textures/Gazebo_1_normal.png"
    }
  ],
  "materials": [
    {
      "doubleSided": true,
      "name": "Gazebo_1",
      "normalTexture": {
        "index": 2
      },
      "occlusionTexture": {
        "index": 1
      },
      "pbrMetallicRoughness": {
        "baseColorTexture": {
          "index": 0
        },
        "metallicRoughnessTexture": {
          "index": 1
        },
        "roughnessFactor": 0.6
      }
    }
  ],
  "meshes": [
    {
      "name": "Object_0",
      "primitives": [
        {
          "attributes": {
            "NORMAL": 1,
            "POSITION": 0,
            "TANGENT": 2,
            "TEXCOORD_0": 3
          },
          "indices": 4,
          "material": 0,
          "mode": 4
        }
      ]
    },
    {
      "name": "Object_1",
      "primitives": [
        {
          "attributes": {
            "NORMAL": 6,
            "POSITION": 5,
            "TANGENT": 7,
            "TEXCOORD_0": 8
          },
          "indices": 9,
          "material": 0,
          "mode": 4
        }
      ]
    }
  ],
  "nodes": [
    {
      "children": [
        1
      ],
      "matrix": [
        0.6666666865348816,
        0.0,
        0.0,
        0.0,
        0.0,
        1.4802974102831747e-16,
        -0.6666666865348816,
        0.0,
        0.0,
        0.6666666865348816,
        1.4802974102831747e-16,
        0.0,
        0.0,
        0.0,
        0.0,
        1.0
      ],
      "name": "Sketchfab_model"
    },
    {
      "children": [
        2,
        3
      ],
      "name": "Gazebo.obj.cleaner.materialmerger.gles"
    },
    {
      "mesh": 0,
      "name": "Object_2"
    },
    {
      "mesh": 1,
      "name": "Object_3"
    }
  ],
  "samplers": [
    {
      "magFilter": 9729,
      "minFilter": 9987,
      "wrapS": 10497,
      "wrapT": 10497
    }
  ],
  "scene": 0,
  "scenes": [
    {
      "name": "Sketchfab_Scene",
      "nodes": [
        0
      ]
    }
  ],
  "textures": [
    {
      "sampler": 0,
      "source": 0
    },
    {
      "sampler": 0,
      "source": 1
    },
    {
      "sampler": 0,
      "source": 2
    }
  ]
}
