{
  "accessors": [
    {
      "bufferView": 2,
      "componentType": 5126,
      "count": 6709,
      "max": [
        1.8431817293167114,
        4.593567848205566,
        0.4009392559528351
      ],
      "min": [
        -1.843493938446045,
        0.0,
        -0.4006310999393463
      ],
      "type": "VEC3"
    },
    {
      "bufferView": 2,
      "byteOffset": 80508,
      "componentType": 5126,
      "count": 6709,
      "max": [
        0.9998071789741516,
        0.9991529583930969,
        1.0
      ],
      "min": [
        -0.9998071789741516,
        -0.9986088275909424,
        -1.0
      ],
      "type": "VEC3"
    },
    {
      "bufferView": 3,
      "componentType": 5126,
      "count": 6709,
      "max": [
        0.9863800406455994,
        0.9973704218864441,
        0.9872885346412659,
        1.0
      ],
      "min": [
        -0.9984158873558044,
        -0.9994650483131409,
        -0.9869055151939392,
        1.0
      ],
      "type": "VEC4"
    },
    {
      "bufferView": 1,
      "componentType": 5126,
      "count": 6709,
      "max": [
        0.9971559047698975,
        0.9696879386901855
      ],
      "min": [
        0.002807394601404667,
        0.003217726945877075
      ],
      "type": "VEC2"
    },
    {
      "bufferView": 1,
      "byteOffset": 53672,
      "componentType": 5126,
      "count": 6709,
      "max": [
        0.9971559047698975,
        0.9696879386901855
      ],
      "min": [
        0.002807394601404667,
        0.003217726945877075
      ],
      "type": "VEC2"
    },
    {
      "bufferView": 1,
      "byteOffset": 107344,
      "componentType": 5126,
      "count": 6709,
      "max": [
        0.9971559047698975,
        0.9696879386901855
      ],
      "min": [
        0.002807394601404667,
        0.003217726945877075
      ],
      "type": "VEC2"
    },
    {
      "bufferView": 1,
      "byteOffset": 161016,
      "componentType": 5126,
      "count": 6709,
      "max": [
        0.9971559047698975,
        0.9696879386901855
      ],
      "min": [
        0.002807394601404667,
        0.003217726945877075
      ],
      "type": "VEC2"
    },
    {
      "bufferView": 0,
      "componentType": 5125,
      "count": 27648,
      "type": "SCALAR"
    }
  ],
  "asset": {
    "extras": {
      "author": "HolmHansen (https://sketchfab.com/HolmH)",
      "license": "CC-BY-NC-4.0 (http://creativecommons.org/licenses/by-nc/4.0/)",
      "source": "https://sketchfab.com/3d-models/gothic-stone-doorway-0484daddf41d49ed889e6fa24ce7c0d9",
      "title": "Gothic Stone Doorway"
    },
    "generator": "Sketchfab-15.1.0",
    "version": "2.0"
  },
  "bufferViews": [
    {
      "buffer": 0,
      "byteLength": 110592,
      "name": "floatBufferViews",
      "target": 34963
    },
    {
      "buffer": 0,
      "byteLength": 214688,
      "byteOffset": 110592,
      "byteStride": 8,
      "name": "floatBufferViews",
      "target": 34962
    },
    {
      "buffer": 0,
      "byteLength": 161016,
      "byteOffset": 325280,
      "byteStride": 12,
      "name": "floatBufferViews",
      "target": 34962
    },
    {
      "buffer": 0,
      "byteLength": 107344,
      "byteOffset": 486296,
      "byteStride": 16,
      "name": "floatBufferViews",
      "target": 34962
    }
  ],
  "buffers": [
    {
      "byteLength": 593640,
      "uri": "scene.bin"
    }
  ],
  "extensionsUsed": [
    "KHR_materials_specular"
  ],
  "images": [
    {
      "uri": "textures/Material.012_baseColor.jpeg"
    },
    {
      "uri": "textures/Material.012_metallicRoughness.png"
    },
    {
      "uri": "textures/Material.012_normal.jpeg"
    }
  ],
  "materials": [
    {
      "doubleSided": true,
      "extensions": {
        "KHR_materials_specular": {
          "specularColorFactor": [
            1.0,
            1.0,
            1.0
          ],
          "specularFactor": 0.0218573501897218
        }
      },
      "name": "Material.012",
      "normalTexture": {
        "index": 2
      },
      "pbrMetallicRoughness": {
        "baseColorTexture": {
          "index": 0
        },
        "metallicFactor": 0.0,
        "metallicRoughnessTexture": {
          "index": 1
        }
      }
    }
  ],
  "meshes": [
    {
      "name": "Object_0",
      "primitives": [
        {
          "attributes": {
            "NORMAL": 1,
            "POSITION": 0,
            "TANGENT": 2,
            "TEXCOORD_0": 3,
            "TEXCOORD_1": 4,
            "TEXCOORD_2": 5,
            "TEXCOORD_3": 6
          },
          "indices": 7,
          "material": 0,
          "mode": 4
        }
      ]
    }
  ],
  "nodes": [
    {
      "children": [
        1
      ],
      "matrix": [
        1.0,
        0.0,
        0.0,
        0.0,
        0.0,
        2.220446049250313e-16,
        -1.0,
        0.0,
        0.0,
        1.0,
        2.220446049250313e-16,
        0.0,
        0.0,
        0.0,
        0.0,
        1.0
      ],
      "name": "Sketchfab_model"
    },
    {
      "children": [
        2
      ],
      "name": "root"
    },
    {
      "children": [
        3
      ],
      "matrix": [
        1.0,
        0.0,
        0.0,
        0.0,
        0.0,
        2.220446049250313e-16,
        1.0,
        0.0,
        0.0,
        -1.0,
        2.220446049250313e-16,
        0.0,
        0.0,
        0.0,
        0.0,
        1.0
      ],
      "name": "GLTF_SceneRootNode"
    },
    {
      "children": [
        4
      ],
      "name": "stone_doorway_2"
    },
    {
      "mesh": 0,
      "name": "Object_4"
    }
  ],
  "samplers": [
    {
      "magFilter": 9729,
      "minFilter": 9987,
      "wrapS": 10497,
      "wrapT": 10497
    }
  ],
  "scene": 0,
  "scenes": [
    {
      "name": "Sketchfab_Scene",
      "nodes": [
        0
      ]
    }
  ],
  "textures": [
    {
      "sampler": 0,
      "source": 0
    },
    {
      "sampler": 0,
      "source": 1
    },
    {
      "sampler": 0,
      "source": 2
    }
  ]
}
