{
  "accessors": [
    {
      "bufferView": 2,
      "componentType": 5126,
      "count": 40511,
      "max": [
        13.93690013885498,
        11.265399932861328,
        10.684700012207031
      ],
      "min": [
        -13.895400047302246,
        -8.344849586486816,
        0.5955179929733276
      ],
      "type": "VEC3"
    },
    {
      "bufferView": 2,
      "byteOffset": 486132,
      "componentType": 5126,
      "count": 40511,
      "max": [
        0.999900758266449,
        0.9998607635498047,
        1.0
      ],
      "min": [
        -0.9999067783355713,
        -0.9999788999557495,
        -0.9997603893280029
      ],
      "type": "VEC3"
    },
    {
      "bufferView": 3,
      "componentType": 5126,
      "count": 40511,
      "max": [
        0.9999995827674866,
        0.9999810457229614,
        0.9999986290931702,
        1.0
      ],
      "min": [
        -0.9999998211860657,
        -0.9999980330467224,
        -0.9999997019767761,
        -1.0
      ],
      "type": "VEC4"
    },
    {
      "bufferView": 1,
      "componentType": 5126,
      "count": 40511,
      "max": [
        0.9988870024681091,
        0.9990000128746033
      ],
      "min": [
        0.0010000000474974513,
        0.0010000000474974513
      ],
      "type": "VEC2"
    },
    {
      "bufferView": 0,
      "componentType": 5125,
      "count": 199725,
      "type": "SCALAR"
    }
  ],
  "asset": {
    "extras": {
      "author": "StudioNexus (https://sketchfab.com/cynex)",
      "license": "CC-BY-NC-4.0 (http://creativecommons.org/licenses/by-nc/4.0/)",
      "source": "https://sketchfab.com/3d-models/guild-park-gardens-wall-structure-f855d7167b414429802d3b74eba29de4",
      "title": "Guild Park & Gardens - Wall Structure"
    },
    "generator": "Sketchfab-12.65.0",
    "version": "2.0"
  },
  "bufferViews": [
    {
      "buffer": 0,
      "byteLength": 798900,
      "name": "floatBufferViews",
      "target": 34963
    },
    {
      "buffer": 0,
      "byteLength": 324088,
      "byteOffset": 798900,
      "byteStride": 8,
      "name": "floatBufferViews",
      "target": 34962
    },
    {
      "buffer": 0,
      "byteLength": 972264,
      "byteOffset": 1122988,
      "byteStride": 12,
      "name": "floatBufferViews",
      "target": 34962
    },
    {
      "buffer": 0,
      "byteLength": 648176,
      "byteOffset": 2095252,
      "byteStride": 16,
      "name": "floatBufferViews",
      "target": 34962
    }
  ],
  "buffers": [
    {
      "byteLength": 2743428,
      "uri": "scene.bin"
    }
  ],
  "images": [
    {
      "uri": "textures/default_mtl_baseColor.jpeg"
    },
    {
      "uri": "textures/default_mtl_metallicRoughness.png"
    },
    {
      "uri": "textures/default_mtl_normal.png"
    }
  ],
  "materials": [
    {
      "doubleSided": true,
      "name": "default_mtl",
      "normalTexture": {
        "index": 2
      },
      "occlusionTexture": {
        "index": 1,
        "strength": 0.4942040749320541
      },
      "pbrMetallicRoughness": {
        "baseColorTexture": {
          "index": 0
        },
        "metallicFactor": 0.0,
        "metallicRoughnessTexture": {
          "index": 1
        }
      }
    }
  ],
  "meshes": [
    {
      "name": "Object_0",
      "primitives": [
        {
          "attributes": {
            "NORMAL": 1,
            "POSITION": 0,
            "TANGENT": 2,
            "TEXCOORD_0": 3
          },
          "indices": 4,
          "material": 0,
          "mode": 4
        }
      ]
    }
  ],
  "nodes": [
    {
      "children": [
        1
      ],
      "matrix": [
        0.999774158000946,
        0.021251043304800987,
        4.718679514859267e-18,
        0.0,
        0.0,
        2.220446049250313e-16,
        -1.0,
        0.0,
        -0.021251043304800987,
        0.999774158000946,
        2.219944579275759e-16,
        0.0,
        0.11986295133829117,
        0.000832851801533252,
        1.8493024923255152e-19,
        1.0
      ],
      "name": "Sketchfab_model"
    },
    {
      "children": [
        2
      ],
      "name": "WallStructure.obj.cleaner.materialmerger.gles"
    },
    {
      "mesh": 0,
      "name": "Object_2"
    }
  ],
  "samplers": [
    {
      "magFilter": 9729,
      "minFilter": 9987,
      "wrapS": 10497,
      "wrapT": 10497
    }
  ],
  "scene": 0,
  "scenes": [
    {
      "name": "Sketchfab_Scene",
      "nodes": [
        0
      ]
    }
  ],
  "textures": [
    {
      "sampler": 0,
      "source": 0
    },
    {
      "sampler": 0,
      "source": 1
    },
    {
      "sampler": 0,
      "source": 2
    }
  ]
}
